<svg width="120" height="91" viewBox="0 0 120 91" fill="none" xmlns="http://www.w3.org/2000/svg">
<path d="M0 7C0 3.134 3.13401 0 7 0H113C116.866 0 120 3.13401 120 7V83.7759C120 87.6419 116.866 90.7759 113 90.7759H7C3.13401 90.7759 0 87.6419 0 83.7759V7Z" fill="white"/>
<path d="M64.8889 35.2609C64.8889 34.2978 65.1756 33.3563 65.7128 32.5555C66.25 31.7547 67.0135 31.1305 67.9069 30.762C68.8002 30.3934 69.7832 30.297 70.7316 30.4849C71.6799 30.6728 72.551 31.1365 73.2347 31.8176C73.9185 32.4986 74.3841 33.3663 74.5727 34.3109C74.7614 35.2555 74.6646 36.2346 74.2945 37.1244C73.9245 38.0142 73.2979 38.7747 72.4939 39.3098C71.6899 39.8448 70.7447 40.1304 69.7778 40.1304C68.4812 40.1304 67.2377 39.6174 66.3208 38.7042C65.404 37.7909 64.8889 36.5524 64.8889 35.2609ZM93 23.087V66.913C93 68.5274 92.3562 70.0756 91.2101 71.2172C90.064 72.3587 88.5097 73 86.8889 73H33.1111C31.4903 73 29.936 72.3587 28.7899 71.2172C27.6438 70.0756 27 68.5274 27 66.913V23.087C27 21.4726 27.6438 19.9244 28.7899 18.7828C29.936 17.6413 31.4903 17 33.1111 17H86.8889C88.5097 17 90.064 17.6413 91.2101 18.7828C92.3562 19.9244 93 21.4726 93 23.087ZM34.3333 24.3043V48.567L44.6794 38.2617C45.8254 37.1206 47.3796 36.4796 49 36.4796C50.6204 36.4796 52.1746 37.1206 53.3206 38.2617L65.9003 50.7826L71.1497 45.557C72.2957 44.4158 73.8498 43.7748 75.4703 43.7748C77.0907 43.7748 78.6448 44.4158 79.7908 45.557L85.6667 51.4187V24.3043H34.3333ZM34.3333 65.6956H70.4928L49 44.2878L34.3333 58.8965V65.6956ZM85.6667 65.6956V61.7391L75.4703 51.583L71.0856 55.9565L80.8633 65.6956H85.6667Z" fill="#FF5440"/>
</svg>
